# xmcd
#
# Track frame offsets:
# 150
# 13496
# 26083
# 36821
# 50769
# 63093
# 73074
# 87800
# 102816
# 122369
#
# Disc length: 1841 seconds
#
#
# Revision: 7
# Processed by: cddbd v1.5.1PL2 Copyright (c) Steve Scherf et al.
# Submitted via: FreeRIP 2.90 
#
DISCID=81072f0a
DTITLE=Shania Twain - Shania Twain 1993
DYEAR=1993
DGENRE=Country
TTITLE0=What Made You Say That
TTITLE1=You Lay A Whole Lot Of Love On Me
TTITLE2=Dance With The One That Brought You
TTITLE3=Still Under The Weather
TTITLE4=God Ain't Gonna Getcha For That
TTITLE5=Got A Hold On Me
TTITLE6=There Goes The Neighborhood
TTITLE7=Forget Me
TTITLE8=When He Leaves You
TTITLE9=Crime Of The Century
EXTD=
EXTT0=
EXTT1=
EXTT2=
EXTT3=
EXTT4=
EXTT5=
EXTT6=
EXTT7=
EXTT8=
EXTT9=
PLAYORDER=
